{"accessors" : [{"bufferView" : 0, "byteOffset" : 0, "componentType" : 5123, "count" : 72, "type" : "SCALAR", "max" : [71], "min" : [0]}, {"bufferView" : 1, "byteOffset" : 0, "componentType" : 5126, "count" : 72, "type" : "VEC3", "max" : [1.4053667783737183, 0.08967828750610352, -1.2677218914031982], "min" : [0.9851580858230591, 0.01832592487335205, -1.5863946676254272], "name" : "POSITION"}, {"bufferView" : 1, "byteOffset" : 12, "componentType" : 5126, "count" : 72, "type" : "VEC3", "max" : [-0.11837951093912125, 0.9878368973731995, -0.10086207091808319], "min" : [-0.11838024854660034, 0.9878367781639099, -0.10086320340633392], "name" : "NORMAL"}, {"bufferView" : 1, "byteOffset" : 24, "componentType" : 5126, "count" : 72, "type" : "VEC4", "max" : [0.9789513945579529, 0.13609932363033295, 0.1922929435968399, 1], "min" : [0.9718586206436157, 0.13311445713043213, 0.15473678708076477, 1], "name" : "TANGENT"}, {"bufferView" : 1, "byteOffset" : 40, "componentType" : 5126, "count" : 72, "type" : "VEC2", "max" : [0.6471223831176758, -0.013321400620043278], "min" : [0.5345317721366882, -0.0643300712108612], "name" : "TEXCOORD_0"}, {"bufferView" : 0, "byteOffset" : 144, "componentType" : 5123, "count" : 43917, "type" : "SCALAR", "max" : [43916], "min" : [0]}, {"bufferView" : 2, "byteOffset" : 0, "componentType" : 5126, "count" : 43917, "type" : "VEC3", "max" : [7.1333160400390625, 1.3856555223464966, 3.249666690826416], "min" : [-3.793461799621582, -8.658483505249023, -7.0405449867248535], "name" : "POSITION"}, {"bufferView" : 2, "byteOffset" : 12, "componentType" : 5126, "count" : 43917, "type" : "VEC3", "max" : [0.9999907612800598, 0.9999746084213257, 0.9999273419380188], "min" : [-0.9999765753746033, -0.9999279975891113, -0.999973714351654], "name" : "NORMAL"}, {"bufferView" : 2, "byteOffset" : 24, "componentType" : 5126, "count" : 43917, "type" : "VEC4", "max" : [0.999950647354126, 0.9999707937240601, 0.9997733235359192, 1], "min" : [-0.9999975562095642, -0.9999589920043945, -0.9997676610946655, -1], "name" : "TANGENT"}, {"bufferView" : 2, "byteOffset" : 40, "componentType" : 5126, "count" : 43917, "type" : "VEC2", "max" : [0.9942659735679626, -0.0024431105703115463], "min" : [0.003897913731634617, -0.9963076710700989], "name" : "TEXCOORD_0"}], "asset" : {"generator" : "Aspose.3D 22.10", "version" : "2.0"}, "buffers" : [{"uri" : "data:application/octet-stream;base64,", "byteLength" : 2199464}], "bufferViews" : [{"buffer" : 0, "byteOffset" : 0, "byteLength" : 87980, "target" : 34963}, {"buffer" : 0, "byteOffset" : 87984, "byteLength" : 3456, "byteStride" : 48, "target" : 34962}, {"buffer" : 0, "byteOffset" : 91444, "byteLength" : 2108016, "byteStride" : 48, "target" : 34962}], "materials" : [{"name" : "pasted__touchPBS_MAT", "pbrMetallicRoughness" : {"baseColorFactor" : [0, 0, 0, 1], "metallicFactor" : 0, "roughnessFactor" : 0}, "emissiveFactor" : [0, 0, 0], "alphaMode" : "OPAQUE", "doubleSided" : false}, {"name" : "touchControllerMAT", "pbrMetallicRoughness" : {"baseColorFactor" : [0, 0, 0, 1], "metallicFactor" : 0, "roughnessFactor" : 0}, "emissiveFactor" : [0, 0, 0], "alphaMode" : "OPAQUE", "doubleSided" : false}], "meshes" : [{"primitives" : [{"attributes" : {"POSITION" : 1, "NORMAL" : 2, "TANGENT" : 3, "TEXCOORD_0" : 4}, "indices" : 0, "material" : 0, "mode" : 4}, {"attributes" : {"POSITION" : 6, "NORMAL" : 7, "TANGENT" : 8, "TEXCOORD_0" : 9}, "indices" : 5, "material" : 1, "mode" : 4}], "name" : ""}], "nodes" : [{"mesh" : 0, "name" : "left_touch_mesh"}], "scene" : 0, "scenes" : [{"nodes" : [0]}]}