{"accessors" : [{"bufferView" : 0, "byteOffset" : 0, "componentType" : 5123, "count" : 43917, "type" : "SCALAR", "max" : [43916], "min" : [0]}, {"bufferView" : 1, "byteOffset" : 0, "componentType" : 5126, "count" : 43917, "type" : "VEC3", "max" : [3.793461799621582, 1.3856555223464966, 3.249666690826416], "min" : [-7.1333160400390625, -8.658483505249023, -7.0405449867248535], "name" : "POSITION"}, {"bufferView" : 1, "byteOffset" : 12, "componentType" : 5126, "count" : 43917, "type" : "VEC3", "max" : [0.9999765753746033, 0.9999746084213257, 0.9999273419380188], "min" : [-0.9999907612800598, -0.9999279975891113, -0.999973714351654], "name" : "NORMAL"}, {"bufferView" : 1, "byteOffset" : 24, "componentType" : 5126, "count" : 43917, "type" : "VEC4", "max" : [0.9999975562095642, 0.9999707937240601, 0.9997733235359192, 1], "min" : [-0.999950647354126, -0.9999589323997498, -0.9997677803039551, -1], "name" : "TANGENT"}, {"bufferView" : 1, "byteOffset" : 40, "componentType" : 5126, "count" : 43917, "type" : "VEC2", "max" : [0.9942659735679626, -0.0024431105703115463], "min" : [0.003897913731634617, -0.9963076710700989], "name" : "TEXCOORD_0"}], "asset" : {"generator" : "Aspose.3D 22.10", "version" : "2.0"}, "buffers" : [{"uri" : "data:application/octet-stream;base64,", "byteLength" : 2195860}], "bufferViews" : [{"buffer" : 0, "byteOffset" : 0, "byteLength" : 87836, "target" : 34963}, {"buffer" : 0, "byteOffset" : 87840, "byteLength" : 2108016, "byteStride" : 48, "target" : 34962}], "materials" : [{"name" : "touchControllerMAT", "pbrMetallicRoughness" : {"baseColorFactor" : [0, 0, 0, 1], "metallicFactor" : 0, "roughnessFactor" : 0}, "emissiveFactor" : [0, 0, 0], "alphaMode" : "OPAQUE", "doubleSided" : false}], "meshes" : [{"primitives" : [{"attributes" : {"POSITION" : 1, "NORMAL" : 2, "TANGENT" : 3, "TEXCOORD_0" : 4}, "indices" : 0, "material" : 0, "mode" : 4}], "name" : ""}], "nodes" : [{"mesh" : 0, "name" : "right_touch_mesh"}], "scene" : 0, "scenes" : [{"nodes" : [0]}]}