{"accessors" : [{"bufferView" : 0, "byteOffset" : 0, "componentType" : 5123, "count" : 10005, "type" : "SCALAR", "max" : [10004], "min" : [0]}, {"bufferView" : 1, "byteOffset" : 0, "componentType" : 5126, "count" : 10005, "type" : "VEC3", "max" : [3.5776760578155518, 6.537661075592041, 3.601494312286377], "min" : [-5.477675914764404, -6.759572505950928, -7.142707824707031], "name" : "POSITION"}, {"bufferView" : 1, "byteOffset" : 12, "componentType" : 5126, "count" : 10005, "type" : "VEC3", "max" : [0.9999614953994751, 1.0000039339065552, 1.0000042915344238], "min" : [-0.999895453453064, -0.9999985098838806, -1.0000042915344238], "name" : "NORMAL"}, {"bufferView" : 1, "byteOffset" : 24, "componentType" : 5126, "count" : 10005, "type" : "VEC4", "max" : [1.0000044107437134, 0.9999591112136841, 0.9999985098838806, 1], "min" : [-1.0000044107437134, -0.999988853931427, -0.9996233582496643, 1], "name" : "TANGENT"}, {"bufferView" : 1, "byteOffset" : 40, "componentType" : 5126, "count" : 10005, "type" : "VEC2", "max" : [0.9930552840232849, -0.005353446584194899], "min" : [0.007637056056410074, -0.9940357208251953], "name" : "TEXCOORD_0"}], "asset" : {"generator" : "Aspose.3D 22.10", "version" : "2.0"}, "buffers" : [{"uri" : "data:application/octet-stream;base64,", "byteLength" : 500260}], "bufferViews" : [{"buffer" : 0, "byteOffset" : 0, "byteLength" : 20012, "target" : 34963}, {"buffer" : 0, "byteOffset" : 20016, "byteLength" : 480240, "byteStride" : 48, "target" : 34962}], "materials" : [{"name" : "controlerMAT", "pbrMetallicRoughness" : {"baseColorFactor" : [0, 0, 0, 1], "metallicFactor" : 0, "roughnessFactor" : 0}, "emissiveFactor" : [0, 0, 0], "alphaMode" : "OPAQUE", "doubleSided" : false}], "meshes" : [{"primitives" : [{"attributes" : {"POSITION" : 1, "NORMAL" : 2, "TANGENT" : 3, "TEXCOORD_0" : 4}, "indices" : 0, "material" : 0, "mode" : 4}], "name" : ""}], "nodes" : [{"mesh" : 0, "name" : "r_controller_ply"}], "scene" : 0, "scenes" : [{"nodes" : [0]}]}