{"accessors" : [{"bufferView" : 0, "byteOffset" : 0, "componentType" : 5123, "count" : 17493, "type" : "SCALAR", "max" : [17492], "min" : [0]}, {"bufferView" : 1, "byteOffset" : 0, "componentType" : 5126, "count" : 17493, "type" : "VEC3", "max" : [3.7917518615722656, 6.192397594451904, 3.5381908416748047], "min" : [-5.427812576293945, -7.266296863555908, -7.607109546661377], "name" : "POSITION"}, {"bufferView" : 1, "byteOffset" : 12, "componentType" : 5126, "count" : 17493, "type" : "VEC3", "max" : [0.9997426271438599, 0.9999980926513672, 0.9950173497200012], "min" : [-0.9999552965164185, -0.9986186027526855, -0.9998534321784973], "name" : "NORMAL"}, {"bufferView" : 1, "byteOffset" : 24, "componentType" : 5126, "count" : 17493, "type" : "VEC4", "max" : [0.999990701675415, 0.9994801878929138, 0.9992837309837341, 1], "min" : [-0.9999391436576843, -0.9993325471878052, -0.9987330436706543, -1], "name" : "TANGENT"}, {"bufferView" : 1, "byteOffset" : 40, "componentType" : 5126, "count" : 17493, "type" : "VEC2", "max" : [0.9947100281715393, -0.005623000208288431], "min" : [0.009277000091969967, -0.9820579886436462], "name" : "TEXCOORD_0"}], "asset" : {"generator" : "Aspose.3D 22.10", "version" : "2.0"}, "buffers" : [{"uri" : "data:application/octet-stream;base64,", "byteLength" : 874660}], "bufferViews" : [{"buffer" : 0, "byteOffset" : 0, "byteLength" : 34988, "target" : 34963}, {"buffer" : 0, "byteOffset" : 34992, "byteLength" : 839664, "byteStride" : 48, "target" : 34962}], "materials" : [{"name" : "bothControllerMAT", "pbrMetallicRoughness" : {"baseColorFactor" : [0, 0, 0, 1], "metallicFactor" : 0, "roughnessFactor" : 0}, "emissiveFactor" : [0, 0, 0], "alphaMode" : "OPAQUE", "doubleSided" : false}], "meshes" : [{"primitives" : [{"attributes" : {"POSITION" : 1, "NORMAL" : 2, "TANGENT" : 3, "TEXCOORD_0" : 4}, "indices" : 0, "material" : 0, "mode" : 4}], "name" : ""}], "nodes" : [{"mesh" : 0, "name" : "l_rainier_mesh"}], "scene" : 0, "scenes" : [{"nodes" : [0]}]}